<svg width="23" height="32" viewBox="0 0 23 32" fill="none" xmlns="http://www.w3.org/2000/svg">
<path d="M11.2225 14.3061C11.0725 14.2911 10.8925 14.2911 10.7275 14.3061C9.00581 14.2476 7.37446 13.5213 6.17894 12.281C4.98343 11.0407 4.31761 9.38376 4.3225 7.66108C4.3225 3.98608 7.2925 1.00108 10.9825 1.00108C11.8561 0.985324 12.7243 1.14179 13.5374 1.46155C14.3506 1.78131 15.0928 2.2581 15.7217 2.8647C16.3506 3.4713 16.8538 4.19583 17.2027 4.99691C17.5516 5.798 17.7392 6.65996 17.755 7.53358C17.7708 8.4072 17.6143 9.27537 17.2945 10.0885C16.9748 10.9017 16.498 11.6439 15.8914 12.2728C15.2848 12.9016 14.5603 13.4049 13.7592 13.7538C12.9581 14.1026 12.0961 14.2903 11.2225 14.3061V14.3061ZM3.7225 19.8411C0.0925 22.2711 0.0925 26.2311 3.7225 28.6461C7.8475 31.4061 14.6125 31.4061 18.7375 28.6461C22.3675 26.2161 22.3675 22.2561 18.7375 19.8411C14.6275 17.0961 7.8625 17.0961 3.7225 19.8411V19.8411Z" stroke="black" stroke-width="1.5" stroke-linecap="round" stroke-linejoin="round"/>
</svg>
