<svg width="21" height="21" viewBox="0 0 21 21" fill="none" xmlns="http://www.w3.org/2000/svg">
<path d="M8.43147 15.3922C8.31422 15.3918 8.1983 15.3673 8.09091 15.3202C7.98352 15.2731 7.88696 15.2045 7.80723 15.1185L3.65135 10.6975C3.49599 10.532 3.41277 10.3115 3.41999 10.0846C3.42721 9.85766 3.52427 9.64291 3.68983 9.48755C3.85539 9.3322 4.07588 9.24898 4.30279 9.2562C4.52971 9.26341 4.74447 9.36048 4.89982 9.52604L8.42292 13.28L15.6145 5.41291C15.6875 5.32203 15.7782 5.24703 15.8813 5.19251C15.9843 5.138 16.0974 5.10512 16.2136 5.0959C16.3298 5.08667 16.4466 5.1013 16.5569 5.13889C16.6673 5.17647 16.7688 5.23621 16.8552 5.31444C16.9416 5.39267 17.0111 5.48773 17.0594 5.5938C17.1077 5.69987 17.1338 5.8147 17.1362 5.93123C17.1385 6.04776 17.117 6.16354 17.0729 6.27146C17.0289 6.37937 16.9633 6.47714 16.8801 6.55877L9.06426 15.11C8.98528 15.1975 8.88906 15.2677 8.78163 15.3163C8.67421 15.3649 8.5579 15.3907 8.44002 15.3922H8.43147Z" fill="#231F20"/>
</svg>
