<svg width="160" height="66" viewBox="0 0 160 66" fill="none" xmlns="http://www.w3.org/2000/svg">
<path d="M28.5 30.12H37.08V30.72H36.78C36.46 30.72 36.18 30.84 35.94 31.08C35.7 31.28 35.5 31.54 35.34 31.86C35.18 32.18 35.04 32.52 34.92 32.88C34.84 33.24 34.8 33.56 34.8 33.84V49.92C34.08 50.2 33.26 50.44 32.34 50.64C31.42 50.84 30.46 51 29.46 51.12C28.46 51.28 27.44 51.4 26.4 51.48C25.36 51.56 24.4 51.6 23.52 51.6C19.92 51.6 16.78 51 14.1 49.8C11.42 48.6 9.2 47.04 7.44 45.12C5.68 43.16 4.36 40.96 3.48 38.52C2.64 36.08 2.22 33.62 2.22 31.14C2.22 28.66 2.64 26.2 3.48 23.76C4.36 21.32 5.68 19.14 7.44 17.22C9.24 15.3 11.48 13.76 14.16 12.6C16.88 11.4 20.1 10.8 23.82 10.8C25.22 10.8 26.52 10.92 27.72 11.16C28.92 11.4 29.98 11.62 30.9 11.82C31.42 11.94 31.86 12.06 32.22 12.18C32.62 12.26 32.96 12.3 33.24 12.3H33.78V18.66H33.18C32.94 17.42 32.46 16.42 31.74 15.66C31.06 14.9 30.26 14.32 29.34 13.92C28.42 13.52 27.44 13.26 26.4 13.14C25.4 12.98 24.46 12.9 23.58 12.9C20.58 12.9 17.98 13.44 15.78 14.52C13.58 15.56 11.78 16.92 10.38 18.6C8.98 20.28 7.94 22.18 7.26 24.3C6.58 26.38 6.24 28.46 6.24 30.54C6.24 32.86 6.68 35.16 7.56 37.44C8.44 39.68 9.68 41.7 11.28 43.5C12.88 45.26 14.8 46.7 17.04 47.82C19.32 48.9 21.84 49.44 24.6 49.44C25.36 49.44 26.3 49.36 27.42 49.2C28.54 49 29.66 48.58 30.78 47.94V33.84C30.78 33.56 30.74 33.24 30.66 32.88C30.58 32.52 30.44 32.18 30.24 31.86C30.08 31.54 29.88 31.28 29.64 31.08C29.4 30.84 29.12 30.72 28.8 30.72H28.5V30.12ZM50.2936 50.4H50.5936V51H42.1336V50.4H42.4336C42.7136 50.4 42.9736 50.28 43.2136 50.04C43.4536 49.8 43.6536 49.52 43.8136 49.2C44.0136 48.88 44.1536 48.54 44.2336 48.18C44.3136 47.78 44.3536 47.42 44.3536 47.1V15.12C44.3536 14.84 44.3136 14.52 44.2336 14.16C44.1536 13.8 44.0136 13.46 43.8136 13.14C43.6536 12.82 43.4536 12.56 43.2136 12.36C42.9736 12.12 42.7136 12 42.4336 12H42.1336V11.4H52.5736C56.5736 11.4 59.6536 12.18 61.8136 13.74C64.0136 15.3 65.1136 17.6 65.1136 20.64C65.1136 22.16 64.8536 23.5 64.3336 24.66C63.8536 25.78 63.1936 26.76 62.3536 27.6C61.5136 28.4 60.5136 29.06 59.3536 29.58C58.2336 30.06 57.0336 30.42 55.7536 30.66L60.0736 37.26C61.1136 38.86 62.1736 40.44 63.2536 42C64.3336 43.52 65.3936 45.1 66.4336 46.74C66.7136 47.14 67.0136 47.56 67.3336 48C67.6936 48.44 68.0536 48.84 68.4136 49.2C68.8136 49.56 69.2136 49.86 69.6136 50.1C70.0536 50.3 70.4936 50.4 70.9336 50.4V51H68.3536C66.7536 51 65.4336 50.62 64.3936 49.86C63.3936 49.06 62.5536 48.14 61.8736 47.1C60.0736 44.46 58.2736 41.78 56.4736 39.06C54.7136 36.34 52.9536 33.66 51.1936 31.02C50.7536 30.98 50.2736 30.94 49.7536 30.9C49.2736 30.82 48.8136 30.74 48.3736 30.66V47.1C48.3736 47.42 48.4136 47.78 48.4936 48.18C48.5736 48.54 48.6936 48.88 48.8536 49.2C49.0536 49.52 49.2536 49.8 49.4536 50.04C49.6936 50.28 49.9736 50.4 50.2936 50.4ZM48.3736 13.44V28.68H48.6736C48.9936 28.72 49.4936 28.76 50.1736 28.8C50.8936 28.8 51.7736 28.8 52.8136 28.8C53.6536 28.8 54.5336 28.68 55.4536 28.44C56.4136 28.16 57.2936 27.72 58.0936 27.12C58.9336 26.48 59.6136 25.66 60.1336 24.66C60.6936 23.66 60.9736 22.4 60.9736 20.88C60.9736 19.36 60.6736 18.12 60.0736 17.16C59.5136 16.2 58.7136 15.44 57.6736 14.88C56.6736 14.32 55.4536 13.94 54.0136 13.74C52.5736 13.54 50.9936 13.44 49.2736 13.44H48.3736ZM97.4559 50.4H97.7559C98.7159 50.4 99.1959 49.96 99.1959 49.08C99.1959 48.76 99.1359 48.42 99.0159 48.06L93.6159 33.48H83.1159L77.8959 47.82C77.7759 48.14 77.7159 48.44 77.7159 48.72C77.7159 49.24 77.8559 49.66 78.1359 49.98C78.4159 50.26 78.7159 50.4 79.0359 50.4H79.3359V51H72.6759V50.4H72.9759C73.4959 50.4 73.9959 50.1 74.4759 49.5C74.9959 48.86 75.4159 48.12 75.7359 47.28L89.4759 10.68L102.916 46.92C103.196 47.72 103.576 48.5 104.056 49.26C104.576 50.02 105.236 50.4 106.036 50.4H106.336V51H97.4559V50.4ZM83.7159 31.44H92.9559L88.3359 18.9L83.7159 31.44ZM119.54 50.4H119.84V51H111.32V50.4H111.62C111.94 50.4 112.22 50.28 112.46 50.04C112.7 49.8 112.9 49.52 113.06 49.2C113.26 48.88 113.4 48.54 113.48 48.18C113.56 47.78 113.6 47.42 113.6 47.1V13.62H106.64C106 13.62 105.44 13.76 104.96 14.04C104.48 14.32 104.08 14.68 103.76 15.12C103.44 15.52 103.2 15.98 103.04 16.5C102.88 16.98 102.8 17.46 102.8 17.94H102.2V11.4H129.14V17.94H128.54C128.54 17.46 128.46 16.98 128.3 16.5C128.14 15.98 127.9 15.52 127.58 15.12C127.26 14.68 126.86 14.32 126.38 14.04C125.9 13.76 125.34 13.62 124.7 13.62H117.62V47.1C117.62 47.42 117.66 47.78 117.74 48.18C117.82 48.54 117.94 48.88 118.1 49.2C118.3 49.52 118.5 49.8 118.7 50.04C118.94 50.28 119.22 50.4 119.54 50.4ZM156.727 40.38C156.727 42.38 156.327 44.1 155.527 45.54C154.727 46.94 153.687 48.08 152.407 48.96C151.167 49.84 149.747 50.48 148.147 50.88C146.587 51.28 145.027 51.48 143.467 51.48C141.867 51.48 140.487 51.32 139.327 51C138.167 50.68 137.107 50.38 136.147 50.1C135.507 49.9 134.927 49.74 134.407 49.62C133.887 49.46 133.367 49.38 132.847 49.38V42.54H133.447C133.447 44.06 133.827 45.28 134.587 46.2C135.387 47.08 136.307 47.76 137.347 48.24C138.387 48.72 139.427 49.04 140.467 49.2C141.507 49.32 142.267 49.38 142.747 49.38C144.467 49.38 145.947 49.14 147.187 48.66C148.427 48.14 149.447 47.48 150.247 46.68C151.047 45.84 151.627 44.92 151.987 43.92C152.387 42.92 152.587 41.9 152.587 40.86C152.587 39.54 152.307 38.44 151.747 37.56C151.187 36.64 150.447 35.84 149.527 35.16C148.647 34.48 147.627 33.9 146.467 33.42C145.307 32.94 144.127 32.46 142.927 31.98C141.567 31.46 140.227 30.92 138.907 30.36C137.587 29.8 136.407 29.12 135.367 28.32C134.327 27.48 133.487 26.5 132.847 25.38C132.207 24.22 131.887 22.8 131.887 21.12C131.887 19.36 132.227 17.84 132.907 16.56C133.587 15.24 134.487 14.16 135.607 13.32C136.767 12.48 138.067 11.86 139.507 11.46C140.987 11.02 142.487 10.8 144.007 10.8C145.047 10.8 146.027 10.88 146.947 11.04C147.867 11.16 148.747 11.32 149.587 11.52C150.267 11.68 150.927 11.82 151.567 11.94C152.207 12.02 152.827 12.06 153.427 12.06V18.24H152.827C152.747 16.16 151.927 14.76 150.367 14.04C148.807 13.28 146.647 12.9 143.887 12.9C142.287 12.9 140.967 13.18 139.927 13.74C138.927 14.26 138.127 14.92 137.527 15.72C136.927 16.48 136.507 17.32 136.267 18.24C136.067 19.12 135.967 19.9 135.967 20.58C135.967 21.7 136.207 22.66 136.687 23.46C137.207 24.26 137.887 24.96 138.727 25.56C139.567 26.16 140.527 26.7 141.607 27.18C142.727 27.66 143.887 28.12 145.087 28.56C146.447 29.08 147.827 29.64 149.227 30.24C150.627 30.84 151.867 31.58 152.947 32.46C154.067 33.34 154.967 34.42 155.647 35.7C156.367 36.98 156.727 38.54 156.727 40.38Z" fill="black"/>
<line x1="20" y1="58.5" x2="146" y2="58.5" stroke="black"/>
</svg>
