<svg width="32" height="33" viewBox="0 0 32 33" fill="none" xmlns="http://www.w3.org/2000/svg">
<path d="M28 15.8125C28 23.0312 22.3333 28.875 15.3333 28.875C8.33329 28.875 2.66663 23.0312 2.66663 15.8125C2.66663 8.59375 8.33329 2.75 15.3333 2.75M29.3333 30.25L26.6666 27.5" stroke="black" stroke-width="1.5" stroke-linecap="round" stroke-linejoin="round"/>
<path d="M19.3333 8.42875C18.8667 6.91625 19.4133 5.0325 20.96 4.52375C21.7733 4.24875 22.7733 4.4825 23.3467 5.29375C23.88 4.455 24.92 4.2625 25.72 4.52375C27.2667 5.0325 27.8133 6.91625 27.3467 8.42875C26.6133 10.835 24.0533 12.0863 23.3467 12.0863C22.6267 12.0863 20.0933 10.8625 19.3333 8.42875V8.42875Z" stroke="black" stroke-width="1.5" stroke-linecap="round" stroke-linejoin="round"/>
</svg>
